<svg width="64" height="64" viewBox="0 0 64 64" fill="none" xmlns="http://www.w3.org/2000/svg">
<path d="M11.5195 26.1308V43.8043C11.5195 45.9282 13.2641 47.6728 15.388 47.6728H16.7533C18.8772 47.6728 20.7735 46.535 21.7595 44.6387L24.2626 39.86H39.7364L42.2395 44.7145C43.2256 46.6108 45.1978 47.7486 47.2458 47.7486H48.6111C50.7349 47.7486 52.4795 46.004 52.4795 43.8802V26.1308C52.4795 20.1385 47.625 15.3599 41.7086 15.3599H22.2905C16.374 15.3599 11.5195 20.2144 11.5195 26.1308Z" stroke="#333A53" stroke-width="3" stroke-linecap="round" stroke-linejoin="round"/>
<path d="M22.291 23.8555V31.5165" stroke="#333A53" stroke-width="3" stroke-linecap="round" stroke-linejoin="round"/>
<path d="M26.0829 27.7236H18.4219" stroke="#333A53" stroke-width="3" stroke-linecap="round" stroke-linejoin="round"/>
<path d="M43.7874 23.9313C43.7874 24.6605 43.1962 25.2517 42.4669 25.2517C41.7377 25.2517 41.1465 24.6605 41.1465 23.9313C41.1465 23.202 41.7377 22.6108 42.4669 22.6108C43.1962 22.6108 43.7874 23.202 43.7874 23.9313Z" fill="#536476" stroke="#333A53"/>
<path d="M43.7874 31.5924C43.7874 32.3217 43.1962 32.9129 42.4669 32.9129C41.7377 32.9129 41.1465 32.3217 41.1465 31.5924C41.1465 30.8632 41.7377 30.272 42.4669 30.272C43.1962 30.272 43.7874 30.8632 43.7874 31.5924Z" fill="#536476" stroke="#333A53"/>
<path d="M47.5803 27.7238C47.5803 28.453 46.9892 29.0442 46.2599 29.0442C45.5306 29.0442 44.9395 28.453 44.9395 27.7238C44.9395 26.9945 45.5306 26.4033 46.2599 26.4033C46.9892 26.4033 47.5803 26.9945 47.5803 27.7238Z" fill="#536476" stroke="#333A53"/>
<path d="M39.9182 27.7238C39.9182 28.453 39.327 29.0442 38.5978 29.0442C37.8685 29.0442 37.2773 28.453 37.2773 27.7238C37.2773 26.9945 37.8685 26.4033 38.5978 26.4033C39.327 26.4033 39.9182 26.9945 39.9182 27.7238Z" fill="#536476" stroke="#333A53"/>
</svg>
