<svg width="138" height="57" viewBox="0 0 138 57" fill="none" xmlns="http://www.w3.org/2000/svg">
<path d="M38.8818 17.75H0V56.0038H38.8818V17.75Z" fill="#3289C9"/>
<path d="M55.9093 0.996979H0V14.4435H42.242V56.0033H55.9093V0.996979Z" fill="#3289C9"/>
<path d="M93.1919 24.5711H88.6184L86.725 22.6689C84.7115 23.9415 82.4847 24.5711 80.018 24.5711C76.8178 24.5711 73.991 23.5085 71.5109 21.3833C68.8174 19.0351 67.4707 16.0441 67.4707 12.4102C67.4707 8.84194 68.7508 5.86402 71.2976 3.47643C73.7777 1.15444 76.6978 0 80.0713 0C83.1248 0 85.8716 1.01013 88.2984 3.04352C91.2052 5.47046 92.6586 8.65828 92.6586 12.5676C92.6586 15.6374 91.5118 18.366 89.2051 20.7536L93.1919 24.5711ZM83.1915 14.7715L86.6849 18.1955C88.2184 16.6213 88.9917 14.6666 88.9917 12.3446C88.9917 9.7996 88.1383 7.66126 86.4183 5.94273C84.6982 4.22419 82.5648 3.35836 80.018 3.35836C77.4445 3.35836 75.3111 4.22419 73.6577 5.94273C71.9776 7.64815 71.1509 9.81272 71.1509 12.4364C71.1509 14.9946 72.0176 17.0935 73.7377 18.7071C75.5378 20.3863 77.5912 21.2259 79.898 21.2259C81.4714 21.2259 82.8848 20.8717 84.1515 20.1633L78.4846 14.7584H83.1915V14.7715Z" fill="#ED3431"/>
<path d="M102.138 0.445679V14.7187C102.138 16.7521 102.471 18.2476 103.151 19.1922C104.165 20.5565 105.578 21.2387 107.405 21.2387C109.245 21.2387 110.672 20.5565 111.685 19.1922C112.365 18.287 112.699 16.7915 112.699 14.7187V0.445679H116.339V15.7026C116.339 18.1952 115.552 20.2548 113.965 21.8684C112.192 23.6656 110.005 24.5708 107.418 24.5708C104.832 24.5708 102.645 23.6656 100.885 21.8684C99.2979 20.2548 98.5112 18.1952 98.5112 15.7026V0.445679H102.138Z" fill="#3289C9"/>
<path d="M137.019 3.80404H127.365V9.49752H136.739V12.8559H127.365V20.7795H137.019V24.1379H123.725V0.445679H137.019V3.80404Z" fill="#F37C20"/>
<path d="M70.3638 55.5705V31.8652H73.9906C75.604 31.8652 76.8841 31.9832 77.8441 32.2325C78.8175 32.4817 79.6309 32.8884 80.2976 33.4788C80.9776 34.0822 81.511 34.83 81.8976 35.7352C82.2977 36.6403 82.511 37.5718 82.511 38.5032C82.511 40.2086 81.8443 41.6385 80.5243 42.8192C81.8043 43.2521 82.8177 43.9999 83.5511 45.0756C84.2978 46.1382 84.6711 47.3714 84.6711 48.7882C84.6711 50.6379 84.0044 52.199 82.671 53.4846C81.871 54.2718 80.9643 54.8227 79.9776 55.1245C78.8842 55.4262 77.5241 55.5705 75.8707 55.5705H70.3638ZM74.0039 42.0452H75.1373C76.4841 42.0452 77.4841 41.7566 78.1108 41.1663C78.7375 40.5759 79.0575 39.7101 79.0575 38.5688C79.0575 37.4537 78.7375 36.601 78.0841 36.0238C77.4441 35.4466 76.4974 35.1579 75.2707 35.1579H74.0039V42.0452ZM74.0039 52.199H76.244C77.8841 52.199 79.0975 51.8842 79.8709 51.2414C80.6843 50.5592 81.0843 49.6802 81.0843 48.6308C81.0843 47.6075 80.6976 46.7548 79.9109 46.0595C79.1508 45.3773 77.7908 45.0363 75.844 45.0363H74.0039V52.199Z" fill="#3289C9"/>
<path d="M86.8306 43.6067C86.8306 40.2746 88.0706 37.4016 90.5641 35.014C93.0442 32.6133 96.0177 31.4195 99.4845 31.4195C102.925 31.4195 105.858 32.6264 108.312 35.0402C110.778 37.4541 112.005 40.3533 112.005 43.7379C112.005 47.1487 110.765 50.0348 108.285 52.4093C105.805 54.7968 102.805 55.9906 99.2845 55.9906C96.1777 55.9906 93.3775 54.928 90.9108 52.8159C88.1906 50.4808 86.8306 47.4111 86.8306 43.6067ZM90.4974 43.6591C90.4974 46.2829 91.3908 48.4343 93.1775 50.1266C94.9509 51.8189 97.0044 52.6585 99.3378 52.6585C101.871 52.6585 103.991 51.8058 105.738 50.0741C107.472 48.3294 108.338 46.2173 108.338 43.7247C108.338 41.1929 107.485 39.0808 105.765 37.3753C104.058 35.6568 101.951 34.791 99.4312 34.791C96.9244 34.791 94.8043 35.6437 93.0842 37.3753C91.3508 39.0676 90.4974 41.1535 90.4974 43.6591Z" fill="#F37C20"/>
<path d="M115.685 55.5701V30.2512L133.246 48.3286V31.8648H136.886V57L119.325 38.9751V55.5701H115.685Z" fill="#ED3431"/>
</svg>
