<svg width="1242" height="1243" viewBox="0 0 1242 1243" fill="none" xmlns="http://www.w3.org/2000/svg">
<g opacity="0.2">
<path d="M540.21 1242L621 622.723L701.79 1242.07H540.21V1242ZM621.862 622.458L1001.49 1118.4L861.58 1199.25L621.862 622.458ZM240.58 1118.46L620.205 622.524L380.487 1199.25L240.58 1118.46ZM621.53 621.663L621.862 622.458L621.199 621.53L621.066 622.657L620.934 621.53L620.271 622.458L620.735 621.398L619.674 621.862L620.602 621.199L619.476 621.066L620.602 620.934L619.674 620.271L620.47 620.602L240.58 123.604L380.487 42.8139L620.602 619.409L540.21 0H701.79L621.464 619.409L861.58 42.8139L1001.49 123.604L622.193 619.873L1118.46 240.58L1199.25 380.487L622.657 620.602L1242 540.21V701.79L622.591 621.464L1199.19 861.58L1118.4 1001.49L621.53 621.663ZM42.8139 861.58L619.542 621.862L123.604 1001.49L42.8139 861.58ZM0 540.21L619.343 621L0 701.79V540.21ZM42.8139 380.487L123.604 240.58L619.542 620.205L42.8139 380.487Z" fill="url(#paint0_radial)"/>
</g>
<defs>
<radialGradient id="paint0_radial" cx="0" cy="0" r="1" gradientUnits="userSpaceOnUse" gradientTransform="translate(621.015 668.734) scale(581.087)">
<stop stop-color="#FFD542"/>
<stop offset="0.0530729" stop-color="#FFD542" stop-opacity="0.9469"/>
<stop offset="1" stop-color="#FFD542" stop-opacity="0"/>
</radialGradient>
</defs>
</svg>
