<svg width="50" height="50" viewBox="0 0 50 50" fill="none" xmlns="http://www.w3.org/2000/svg">
<path d="M21.0357 23.4301C22.6195 23.4301 23.9034 22.1973 23.9034 20.6765C23.9034 19.1557 22.6195 17.9228 21.0357 17.9228C19.4519 17.9228 18.168 19.1557 18.168 20.6765C18.168 22.1973 19.4519 23.4301 21.0357 23.4301Z" stroke="#536476" stroke-width="2" stroke-linecap="round" stroke-linejoin="round"/>
<path d="M29.0982 24.5732C29.6934 23.3782 30.0721 22.0793 30.0721 20.6765C30.0721 15.8966 26.014 12 21.0361 12C16.0581 12 12 15.8966 12 20.6765C12 25.4564 16.0581 29.3531 21.0361 29.3531C22.497 29.3531 23.8497 29.0413 25.0401 28.4179V31.795H28.3407V31.8469V35.0682H31.6413V38.3413H36.3487H39V34.133L29.0982 24.5732Z" stroke="#536476" stroke-width="2" stroke-linecap="round" stroke-linejoin="round"/>
<path d="M35.6995 35.224L28.6113 28.4179" stroke="#536476" stroke-width="2" stroke-linecap="round" stroke-linejoin="round"/>
</svg>
